# 3ds Max Wavefront OBJ Exporter v0.97b - (c)2007 guruware
# File Created: 19.02.2017 23:16:43

mtllib SM_Brick_Fence_03.mtl

#
# object Brick_Fence_03
#

v  -0.2647 0.0363 -1.6078
v  -0.2647 0.0364 1.6078
v  0.2647 0.0363 1.6078
v  0.2639 0.0363 -1.6078
v  -0.2647 0.0364 -1.6078
v  -0.1501 0.0337 -0.7848
v  -0.1501 1.5708 -0.7848
v  0.1524 1.5708 -0.7848
v  0.1524 0.0337 -0.7848
v  -0.1501 1.5708 0.7873
v  -0.1501 0.0337 0.7873
v  0.1524 0.0337 0.7873
v  0.1524 1.5708 0.7873
v  0.1598 1.5708 -0.7910
v  -0.1564 1.5708 -0.7910
v  -0.1564 1.5708 0.7938
v  0.1598 1.5708 0.7938
v  -0.1565 1.6229 0.7938
v  0.1600 1.6229 0.7938
v  0.0012 1.6665 0.7558
v  0.1600 1.6229 -0.7910
v  -0.1565 1.6229 -0.7910
v  0.0012 1.6665 -0.7533
v  -0.2194 1.8101 -1.4158
v  -0.2194 0.1201 -1.4158
v  -0.2194 0.1201 -1.2718
v  -0.2194 1.8101 -1.2718
v  -0.2194 1.8101 1.2718
v  -0.2194 0.1201 1.2718
v  -0.2194 0.1201 1.4158
v  -0.2194 1.8101 1.4158
v  0.2647 -0.3230 1.6078
v  0.2647 -0.3230 -1.6078
v  0.1209 0.0363 1.0816
v  0.1209 0.0363 0.7873
v  0.1209 1.4493 0.7873
v  0.1209 1.4493 1.0816
v  0.1209 0.0363 -0.7848
v  0.1209 0.0363 -1.0798
v  0.1209 1.4493 -1.0798
v  0.1209 1.4493 -0.7848
v  -0.2642 0.1201 -1.4158
v  -0.2638 0.1201 -1.2718
v  0.2638 1.8101 -1.4158
v  0.2633 1.8291 -1.6078
v  0.2647 1.8291 -1.0798
v  0.2642 1.8101 -1.2718
v  0.2638 0.1201 -1.4158
v  0.2642 0.1201 -1.2718
v  0.2647 0.0363 -1.0798
v  -0.2642 0.1201 1.2718
v  -0.2638 0.1201 1.4158
v  0.2638 1.8101 1.2718
v  0.2633 1.8291 1.0798
v  0.2647 1.8291 1.6078
v  0.2642 1.8101 1.4158
v  0.2638 0.1201 1.2718
v  0.2633 0.0363 1.0798
v  0.2642 0.1201 1.4158
v  -0.2637 0.0363 1.6078
v  -0.2647 -0.3230 -1.6078
v  -0.2647 -0.3230 1.6078
v  -0.1191 0.0363 0.7873
v  -0.1191 0.0363 1.0816
v  -0.1191 1.4493 1.0816
v  -0.1191 1.4493 0.7873
v  -0.1191 0.0363 -1.0798
v  -0.1191 0.0363 -0.7848
v  -0.1191 1.4493 -0.7848
v  -0.1191 1.4493 -1.0798
v  0.2210 1.8101 -1.2718
v  0.2210 1.8101 -1.4158
v  -0.2633 1.8291 -1.0798
v  -0.2647 1.8291 -1.6078
v  -0.2642 1.8101 -1.4158
v  -0.2638 1.8101 -1.2718
v  -0.2633 0.0363 -1.0798
v  0.2210 1.8101 1.4158
v  0.2210 1.8101 1.2718
v  -0.2633 1.8291 1.6078
v  -0.2647 1.8291 1.0798
v  -0.2642 1.8101 1.2718
v  -0.2638 1.8101 1.4158
v  -0.2647 0.0363 1.0798
v  0.2210 0.1201 -1.2718
v  0.2210 0.1201 -1.4158
v  0.2210 0.1201 1.4158
v  0.2210 0.1201 1.2718
v  0.1524 0.0268 -0.6104
v  0.1524 0.0268 0.6260
v  0.1524 1.4455 0.6260
v  0.1524 1.4455 -0.6104
v  -0.1501 0.0268 0.6260
v  -0.1501 0.0268 -0.6104
v  -0.1501 1.4455 -0.6104
v  -0.1501 1.4455 0.6260
v  0.1246 1.4492 1.0816
v  0.1246 1.4492 0.7873
v  -0.1228 1.4492 0.7873
v  -0.1228 1.4492 1.0816
v  0.1246 1.4814 1.0816
v  0.1246 1.4814 0.7873
v  0.0009 1.4975 0.7873
v  0.0009 1.4975 1.0816
v  -0.1227 1.4814 0.7873
v  -0.1227 1.4814 1.0816
v  0.1246 1.4492 -0.7848
v  0.1246 1.4492 -1.0798
v  -0.1228 1.4492 -1.0798
v  -0.1228 1.4492 -0.7848
v  0.1246 1.4814 -0.7848
v  0.1246 1.4814 -1.0798
v  0.0009 1.4975 -1.0798
v  0.0009 1.4975 -0.7848
v  -0.1227 1.4814 -1.0798
v  -0.1227 1.4814 -0.7848
v  0.2748 1.8294 -1.6194
v  0.2763 1.8294 -1.0683
v  -0.2763 1.8294 -1.6194
v  -0.2748 1.8294 -1.0683
v  0.2748 1.9194 -1.6194
v  0.2763 1.9194 -1.0683
v  -0.2763 1.9194 -1.6194
v  -0.2748 1.9194 -1.0683
v  0.0000 2.0002 -1.3438
v  -0.1045 0.0268 -0.6104
v  -0.1045 1.4455 -0.6104
v  -0.1045 1.4455 0.6260
v  -0.1045 0.0268 0.6260
v  0.1099 1.4455 0.6260
v  0.1099 1.4455 -0.6104
v  0.1099 0.0268 0.6260
v  0.1099 0.0268 -0.6104
v  0.2748 1.8294 1.0683
v  0.2763 1.8294 1.6194
v  -0.2763 1.8294 1.0683
v  -0.2748 1.8294 1.6194
v  0.2748 1.9194 1.0683
v  0.2763 1.9194 1.6194
v  -0.2763 1.9194 1.0683
v  -0.2748 1.9194 1.6194
v  0.0000 2.0002 1.3438
# 142 vertices

vn 0.0000 1.0000 -0.0000
vn 0.0000 -0.0000 -1.0000
vn 0.0000 -0.0000 1.0000
vn 0.0000 -1.0000 -0.0083
vn 0.0000 -1.0000 0.0079
vn 0.0000 0.6566 0.7542
vn 0.0000 0.6535 -0.7569
vn -1.0000 0.0000 -0.0000
vn 1.0000 -0.0000 -0.0003
vn 1.0000 0.0023 -0.0000
vn -1.0000 -0.0011 -0.0000
vn 1.0000 -0.0026 -0.0000
vn 1.0000 -0.0000 -0.0000
vn 1.0000 0.0000 -0.0000
vn 1.0000 -0.0000 -0.0028
vn 1.0000 0.0004 0.0004
vn 1.0000 0.0000 -0.0028
vn 1.0000 0.0028 -0.0015
vn 1.0000 0.0077 -0.0028
vn -1.0000 0.0000 0.0003
vn -1.0000 0.0029 0.0000
vn 0.0000 -1.0000 -0.0000
vn -1.0000 0.0000 0.0028
vn -1.0000 -0.0000 0.0028
vn -1.0000 0.0018 0.0020
vn -1.0000 0.0050 0.0028
vn -1.0000 0.0002 0.0007
vn -0.0081 -1.0000 -0.0000
vn 0.0069 -1.0000 -0.0000
vn 0.2648 0.9643 -0.0000
vn -0.2666 0.9638 -0.0000
vn -0.2666 0.9638 0.0000
vn 1.0000 -0.0000 0.0000
vn -1.0000 0.0000 0.0000
vn 0.0000 0.0000 -1.0000
vn 0.0000 0.0000 1.0000
vn -0.0229 -0.9997 -0.0000
vn 0.0228 -0.9997 -0.0000
vn 0.1292 0.9916 -0.0000
vn -0.1292 0.9916 -0.0000
vn -0.1292 0.9916 0.0000
vn 1.0000 0.0001 -0.0000
vn -1.0000 0.0007 -0.0000
vn 0.0312 -0.9995 -0.0001
vn 0.0000 -0.9995 -0.0312
vn -0.0312 -0.9995 0.0001
vn 0.0000 -0.9995 0.0312
vn 0.2814 0.9596 -0.0008
vn 0.0000 0.9596 -0.2814
vn -0.2814 0.9596 0.0008
vn 0.0000 0.9596 0.2814
vn -0.0000 -0.0000 -1.0000
vn -0.0000 -0.0000 1.0000
vn -0.0000 0.0000 -1.0000
# 54 vertex normals

vt 0.4177 0.8125 0.0000
vt 0.4177 0.3946 0.0000
vt 0.5023 0.3946 0.0000
vt 0.5023 0.8125 0.0000
vt 0.3292 0.4461 0.0000
vt 0.0017 0.4461 0.0000
vt 0.0014 0.3668 0.0000
vt 0.3296 0.3668 0.0000
vt 0.0018 0.7812 0.0000
vt 0.3294 0.7812 0.0000
vt 0.3296 0.8605 0.0000
vt 0.0014 0.8605 0.0000
vt 0.2333 0.9831 0.0000
vt 0.2320 0.9812 0.0000
vt 0.2320 0.9037 0.0000
vt 0.2332 0.9020 0.0000
vt 0.5863 0.9025 0.0000
vt 0.5877 0.9041 0.0000
vt 0.5877 0.9817 0.0000
vt 0.5864 0.9836 0.0000
vt 0.5754 0.9022 0.0000
vt 0.5756 0.9837 0.0000
vt 0.5664 0.9429 0.0000
vt 0.2443 0.9834 0.0000
vt 0.2440 0.9019 0.0000
vt 0.2531 0.9425 0.0000
vt 0.5891 0.8986 0.0000
vt 0.5891 0.6182 0.0000
vt 0.6130 0.6182 0.0000
vt 0.6130 0.8986 0.0000
vt 0.9877 0.9698 0.0000
vt 0.7060 0.9698 0.0000
vt 0.7060 0.9458 0.0000
vt 0.9877 0.9458 0.0000
vt 0.5490 0.3946 0.0000
vt 0.5490 0.8125 0.0000
vt 0.2446 0.8911 0.0000
vt 0.5752 0.8912 0.0000
vt 0.5751 0.9945 0.0000
vt 0.2444 0.9944 0.0000
vt 0.3302 0.6801 0.0000
vt 0.3302 0.7426 0.0000
vt 0.0300 0.7426 0.0000
vt 0.0300 0.6801 0.0000
vt 0.3299 0.4897 0.0000
vt 0.3299 0.5524 0.0000
vt 0.0296 0.5524 0.0000
vt 0.0296 0.4897 0.0000
vt 0.5891 0.6091 0.0000
vt 0.6130 0.6092 0.0000
vt 0.0699 0.3603 0.0000
vt 0.1087 0.3642 0.0000
vt 0.0020 0.3642 0.0000
vt 0.0408 0.3603 0.0000
vt 0.0699 0.0188 0.0000
vt 0.1087 0.0019 0.0000
vt 0.0408 0.0188 0.0000
vt 0.0020 0.0019 0.0000
vt 0.6968 0.9698 0.0000
vt 0.6969 0.9458 0.0000
vt 0.7850 0.3606 0.0000
vt 0.8238 0.3645 0.0000
vt 0.7171 0.3645 0.0000
vt 0.7559 0.3606 0.0000
vt 0.7850 0.0191 0.0000
vt 0.8238 0.0022 0.0000
vt 0.7559 0.0191 0.0000
vt 0.7171 0.0022 0.0000
vt 0.3710 0.8125 0.0000
vt 0.3710 0.3946 0.0000
vt 0.3300 0.6166 0.0000
vt 0.3300 0.6791 0.0000
vt 0.0297 0.6791 0.0000
vt 0.0297 0.6166 0.0000
vt 0.3298 0.5532 0.0000
vt 0.3298 0.6158 0.0000
vt 0.0296 0.6158 0.0000
vt 0.0296 0.5532 0.0000
vt 0.6333 0.9899 0.0000
vt 0.6572 0.9899 0.0000
vt 0.6572 0.9986 0.0000
vt 0.6333 0.9987 0.0000
vt 0.3465 0.3642 0.0000
vt 0.2398 0.3642 0.0000
vt 0.2786 0.3603 0.0000
vt 0.3077 0.3603 0.0000
vt 0.2786 0.0188 0.0000
vt 0.2398 0.0019 0.0000
vt 0.3465 0.0019 0.0000
vt 0.3077 0.0188 0.0000
vt 0.9656 0.3518 0.0000
vt 0.9895 0.3518 0.0000
vt 0.9895 0.3606 0.0000
vt 0.9656 0.3607 0.0000
vt 0.5860 0.3645 0.0000
vt 0.4793 0.3645 0.0000
vt 0.5181 0.3606 0.0000
vt 0.5472 0.3606 0.0000
vt 0.5181 0.0191 0.0000
vt 0.4793 0.0022 0.0000
vt 0.5860 0.0022 0.0000
vt 0.5472 0.0191 0.0000
vt 0.2459 0.8895 0.0000
vt 0.5738 0.8895 0.0000
vt 0.5737 0.9964 0.0000
vt 0.2457 0.9964 0.0000
vt 0.6333 0.7095 0.0000
vt 0.6572 0.7095 0.0000
vt 0.9656 0.0708 0.0000
vt 0.9895 0.0708 0.0000
vt 0.6333 0.7006 0.0000
vt 0.6572 0.7007 0.0000
vt 0.6130 0.9077 0.0000
vt 0.5891 0.9078 0.0000
vt 0.3696 0.6953 0.0000
vt 0.3324 0.6938 0.0000
vt 0.3324 0.3661 0.0000
vt 0.6675 0.3661 0.0000
vt 0.6675 0.6938 0.0000
vt 0.6332 0.6953 0.0000
vt 0.6332 0.3928 0.0000
vt 0.3696 0.3928 0.0000
vt 0.3308 0.7468 0.0000
vt 0.3307 0.4833 0.0000
vt 0.0284 0.4833 0.0000
vt 0.0285 0.7468 0.0000
vt 0.9656 0.0619 0.0000
vt 0.9895 0.0620 0.0000
vt 0.9967 0.9458 0.0000
vt 0.9968 0.9698 0.0000
vt 0.6320 0.4980 0.0000
vt 0.6320 0.4993 0.0000
vt 0.5502 0.4993 0.0000
vt 0.5502 0.4980 0.0000
vt 0.5502 0.3952 0.0000
vt 0.5502 0.3939 0.0000
vt 0.6320 0.3939 0.0000
vt 0.6320 0.3952 0.0000
vt 0.6320 0.4891 0.0000
vt 0.5502 0.4891 0.0000
vt 0.5502 0.4466 0.0000
vt 0.6320 0.4466 0.0000
vt 0.5502 0.4041 0.0000
vt 0.6320 0.4041 0.0000
vt 0.6323 0.6057 0.0000
vt 0.6323 0.6070 0.0000
vt 0.5503 0.6070 0.0000
vt 0.5503 0.6057 0.0000
vt 0.5503 0.5029 0.0000
vt 0.5503 0.5016 0.0000
vt 0.6323 0.5016 0.0000
vt 0.6323 0.5029 0.0000
vt 0.6323 0.5968 0.0000
vt 0.5503 0.5968 0.0000
vt 0.5503 0.5543 0.0000
vt 0.6323 0.5543 0.0000
vt 0.5503 0.5118 0.0000
vt 0.6323 0.5118 0.0000
vt 0.0187 0.9920 0.0000
vt 0.0998 0.9920 0.0000
vt 0.0981 0.9941 0.0000
vt 0.0204 0.9941 0.0000
vt 0.0053 0.8788 0.0000
vt 0.0054 0.9785 0.0000
vt 0.0037 0.9764 0.0000
vt 0.0036 0.8809 0.0000
vt 0.1000 0.8656 0.0000
vt 0.0189 0.8656 0.0000
vt 0.0206 0.8635 0.0000
vt 0.0983 0.8635 0.0000
vt 0.1134 0.9787 0.0000
vt 0.1134 0.8791 0.0000
vt 0.1151 0.8812 0.0000
vt 0.1151 0.9767 0.0000
vt 0.0186 0.9787 0.0000
vt 0.1001 0.9788 0.0000
vt 0.0186 0.8788 0.0000
vt 0.1001 0.8789 0.0000
vt 0.0594 0.9288 0.0000
vt 0.6795 0.6508 0.0000
vt 0.9781 0.6508 0.0000
vt 0.9781 0.6626 0.0000
vt 0.6795 0.6626 0.0000
vt 0.9781 0.9346 0.0000
vt 0.6795 0.9346 0.0000
vt 0.6795 0.9228 0.0000
vt 0.9781 0.9228 0.0000
vt 0.6677 0.9228 0.0000
vt 0.6677 0.6626 0.0000
vt 0.6687 0.6382 0.0000
vt 0.6687 0.3778 0.0000
vt 0.6797 0.3778 0.0000
vt 0.6797 0.6382 0.0000
vt 0.6797 0.3668 0.0000
vt 0.9784 0.3668 0.0000
vt 0.9784 0.3778 0.0000
vt 0.9784 0.6492 0.0000
vt 0.6797 0.6492 0.0000
vt 0.9784 0.6382 0.0000
vt 0.1327 0.9927 0.0000
vt 0.2139 0.9927 0.0000
vt 0.2122 0.9948 0.0000
vt 0.1344 0.9948 0.0000
vt 0.1193 0.8794 0.0000
vt 0.1193 0.9791 0.0000
vt 0.1176 0.9770 0.0000
vt 0.1176 0.8815 0.0000
vt 0.2141 0.8661 0.0000
vt 0.1329 0.8661 0.0000
vt 0.1346 0.8640 0.0000
vt 0.2124 0.8641 0.0000
vt 0.2275 0.9794 0.0000
vt 0.2275 0.8797 0.0000
vt 0.2292 0.8818 0.0000
vt 0.2292 0.9773 0.0000
vt 0.1326 0.9794 0.0000
vt 0.2142 0.9795 0.0000
vt 0.1326 0.8793 0.0000
vt 0.2142 0.8794 0.0000
vt 0.1734 0.9294 0.0000
vt 0.5023 0.8592 0.0000
vt 0.4177 0.8592 0.0000
vt 0.5800 0.8986 0.0000
vt 0.5800 0.6182 0.0000
vt 0.6659 0.7095 0.0000
vt 0.6659 0.9899 0.0000
vt 0.9550 0.3645 0.0000
vt 0.9550 0.0022 0.0000
vt 0.9877 0.9789 0.0000
vt 0.7066 0.9789 0.0000
vt 0.9982 0.0708 0.0000
vt 0.9982 0.3518 0.0000
vt 0.4776 0.3642 0.0000
vt 0.4776 0.0019 0.0000
vt 0.6221 0.6182 0.0000
vt 0.6221 0.8986 0.0000
vt 0.6245 0.9899 0.0000
vt 0.6245 0.7095 0.0000
vt 0.7066 0.9367 0.0000
vt 0.9877 0.9367 0.0000
vt 0.9567 0.3518 0.0000
vt 0.9567 0.0708 0.0000
# 242 texture coords

g Brick_Fence_03
usemtl Material__27
s off
f 1/1/1 2/2/1 3/3/1 
f 3/3/1 4/4/1 5/1/1 
f 6/5/2 7/6/2 8/7/2 
f 8/7/2 9/8/2 6/5/2 
f 10/9/3 11/10/3 12/11/3 
f 12/11/3 13/12/3 10/9/3 
f 14/13/4 8/14/4 7/15/4 
f 7/15/4 15/16/4 14/13/4 
f 16/17/5 10/18/5 13/19/5 
f 13/19/5 17/20/5 16/17/5 
f 18/21/6 19/22/6 20/23/6 
f 21/24/7 22/25/7 23/26/7 
f 24/27/8 25/28/8 26/29/8 
f 26/29/8 27/30/8 24/27/8 
f 28/31/8 29/32/8 30/33/8 
f 30/33/8 31/34/8 28/31/8 
f 4/4/9 3/3/9 32/35/9 
f 32/35/10 33/36/10 4/4/10 
f 15/37/11 16/38/11 18/21/11 
f 18/21/11 22/25/11 15/37/11 
f 17/39/12 14/40/12 21/24/12 
f 21/24/12 19/22/12 17/39/12 
f 34/41/13 35/42/13 36/43/13 
f 36/43/14 37/44/14 34/41/14 
f 38/45/14 39/46/14 40/47/14 
f 40/47/14 41/48/14 38/45/14 
f 25/28/1 42/49/1 43/50/1 
f 43/50/1 26/29/1 25/28/1 
f 44/51/15 45/52/15 46/53/15 
f 46/53/15 47/54/15 44/51/15 
f 48/55/16 4/56/16 45/52/16 
f 45/52/17 44/51/17 48/55/17 
f 49/57/18 50/58/18 4/56/18 
f 4/56/19 48/55/19 49/57/19 
f 49/57/17 47/54/17 46/53/17 
f 46/53/17 50/58/17 49/57/17 
f 29/32/1 51/59/1 52/60/1 
f 52/60/1 30/33/1 29/32/1 
f 53/61/15 54/62/15 55/63/15 
f 55/63/17 56/64/17 53/61/17 
f 57/65/15 58/66/15 54/62/15 
f 54/62/17 53/61/17 57/65/17 
f 59/67/15 3/68/15 58/66/15 
f 58/66/15 57/65/15 59/67/15 
f 59/67/15 56/64/15 55/63/15 
f 55/63/15 3/68/15 59/67/15 
f 60/2/20 1/1/20 61/69/20 
f 61/69/21 62/70/21 60/2/21 
f 63/71/8 64/72/8 65/73/8 
f 65/73/8 66/74/8 63/71/8 
f 67/75/8 68/76/8 69/77/8 
f 69/77/8 70/78/8 67/75/8 
f 71/79/22 72/80/22 44/81/22 
f 44/81/22 47/82/22 71/79/22 
f 73/83/23 74/84/23 75/85/23 
f 75/85/23 76/86/23 73/83/23 
f 42/87/23 75/85/23 74/84/23 
f 74/84/23 1/88/23 42/87/23 
f 42/87/23 1/88/23 77/89/23 
f 77/89/24 43/90/24 42/87/24 
f 43/90/23 77/89/23 73/83/23 
f 73/83/23 76/86/23 43/90/23 
f 78/91/22 79/92/22 53/93/22 
f 53/93/22 56/94/22 78/91/22 
f 80/95/23 81/96/23 82/97/23 
f 82/97/24 83/98/24 80/95/24 
f 51/99/23 82/97/23 81/96/23 
f 81/96/23 84/100/23 51/99/23 
f 51/99/25 84/100/25 60/101/25 
f 60/101/26 52/102/26 51/99/26 
f 52/102/27 60/101/27 80/95/27 
f 80/95/23 83/98/23 52/102/23 
f 15/37/28 7/103/28 10/104/28 
f 10/104/28 16/38/28 15/37/28 
f 17/39/29 13/105/29 8/106/29 
f 8/106/29 14/40/29 17/39/29 
f 19/22/30 21/24/30 23/26/30 
f 23/26/30 20/23/30 19/22/30 
f 72/80/14 71/79/14 85/107/14 
f 85/107/14 86/108/14 72/80/14 
f 79/92/14 78/91/14 87/109/14 
f 87/109/14 88/110/14 79/92/14 
f 22/25/31 18/21/31 20/23/31 
f 20/23/32 23/26/32 22/25/32 
f 85/107/1 49/111/1 48/112/1 
f 48/112/1 86/108/1 85/107/1 
f 27/30/22 76/113/22 75/114/22 
f 75/114/22 24/27/22 27/30/22 
f 89/115/14 9/116/14 8/117/14 
f 13/118/33 12/119/33 90/120/33 
f 13/118/14 90/120/14 91/121/14 
f 13/118/13 91/121/13 92/122/13 
f 8/117/13 13/118/13 92/122/13 
f 89/115/14 8/117/14 92/122/14 
f 93/123/8 11/10/8 10/9/8 
f 7/6/34 6/5/34 94/124/34 
f 7/6/34 94/124/34 95/125/34 
f 10/9/8 7/6/8 95/125/8 
f 10/9/8 95/125/8 96/126/8 
f 93/123/8 10/9/8 96/126/8 
f 87/109/1 59/127/1 57/128/1 
f 57/128/1 88/110/1 87/109/1 
f 31/34/22 83/129/22 82/130/22 
f 82/130/22 28/31/22 31/34/22 
f 14/13/35 15/16/35 22/25/35 
f 22/25/35 21/24/35 14/13/35 
f 16/17/36 17/20/36 19/22/36 
f 19/22/36 18/21/36 16/17/36 
f 97/131/37 37/132/37 36/133/37 
f 36/133/37 98/134/37 97/131/37 
f 99/135/38 66/136/38 65/137/38 
f 65/137/38 100/138/38 99/135/38 
f 101/139/39 102/140/39 103/141/39 
f 103/141/39 104/142/39 101/139/39 
f 105/143/40 106/144/40 104/142/40 
f 104/142/41 103/141/41 105/143/41 
f 97/131/42 98/134/42 102/140/42 
f 102/140/42 101/139/42 97/131/42 
f 99/135/43 100/138/43 106/144/43 
f 106/144/43 105/143/43 99/135/43 
f 107/145/37 41/146/37 40/147/37 
f 40/147/37 108/148/37 107/145/37 
f 109/149/38 70/150/38 69/151/38 
f 69/151/38 110/152/38 109/149/38 
f 111/153/39 112/154/39 113/155/39 
f 113/155/39 114/156/39 111/153/39 
f 115/157/40 116/158/40 114/156/40 
f 114/156/40 113/155/40 115/157/40 
f 107/145/42 108/148/42 112/154/42 
f 112/154/42 111/153/42 107/145/42 
f 109/149/43 110/152/43 116/158/43 
f 116/158/43 115/157/43 109/149/43 
f 117/159/44 118/160/44 46/161/44 
f 46/161/44 45/162/44 117/159/44 
f 119/163/45 117/164/45 45/165/45 
f 45/165/45 74/166/45 119/163/45 
f 120/167/46 119/168/46 74/169/46 
f 74/169/46 73/170/46 120/167/46 
f 118/171/47 120/172/47 73/173/47 
f 73/173/47 46/174/47 118/171/47 
f 121/175/17 122/176/17 118/160/17 
f 118/160/17 117/159/17 121/175/17 
f 123/177/35 121/175/35 117/164/35 
f 117/164/35 119/163/35 123/177/35 
f 124/178/23 123/177/23 119/168/23 
f 119/168/24 120/167/24 124/178/24 
f 122/176/3 124/178/3 120/172/3 
f 120/172/3 118/171/3 122/176/3 
f 122/176/48 121/175/48 125/179/48 
f 121/175/49 123/177/49 125/179/49 
f 123/177/50 124/178/50 125/179/50 
f 124/178/51 122/176/51 125/179/51 
f 95/180/36 94/181/36 126/182/36 
f 126/182/36 127/183/36 95/180/36 
f 93/184/35 96/185/35 128/186/35 
f 128/186/35 129/187/35 93/184/35 
f 96/188/22 95/189/22 127/183/22 
f 127/183/22 128/186/22 96/188/22 
f 92/190/22 91/191/22 130/192/22 
f 130/192/22 131/193/22 92/190/22 
f 91/194/35 90/195/35 132/196/35 
f 132/196/35 130/192/35 91/194/35 
f 89/197/36 92/198/36 131/193/36 
f 131/193/36 133/199/36 89/197/36 
f 130/192/13 132/196/13 133/199/13 
f 133/199/13 131/193/13 130/192/13 
f 127/183/8 126/182/8 129/187/8 
f 129/187/34 128/186/34 127/183/34 
f 134/200/44 135/201/44 55/202/44 
f 55/202/44 54/203/44 134/200/44 
f 136/204/45 134/205/45 54/206/45 
f 54/206/45 81/207/45 136/204/45 
f 137/208/46 136/209/46 81/210/46 
f 81/210/46 80/211/46 137/208/46 
f 135/212/47 137/213/47 80/214/47 
f 80/214/47 55/215/47 135/212/47 
f 138/216/17 139/217/17 135/201/17 
f 135/201/17 134/200/17 138/216/17 
f 140/218/35 138/216/35 134/205/35 
f 134/205/35 136/204/35 140/218/35 
f 141/219/23 140/218/23 136/209/23 
f 136/209/23 137/208/23 141/219/23 
f 139/217/36 141/219/36 137/213/36 
f 137/213/36 135/212/36 139/217/36 
f 139/217/48 138/216/48 142/220/48 
f 138/216/49 140/218/49 142/220/49 
f 140/218/50 141/219/50 142/220/50 
f 141/219/51 139/217/51 142/220/51 
f 1/1/52 4/4/52 33/221/52 
f 1/1/2 33/221/2 61/222/2 
f 74/84/2 45/52/2 4/56/2 
f 4/56/52 1/88/52 74/84/52 
f 24/27/36 75/223/36 42/224/36 
f 42/224/36 25/28/36 24/27/36 
f 72/80/36 86/108/36 48/225/36 
f 48/225/36 44/226/36 72/80/36 
f 81/227/35 54/62/35 58/66/35 
f 58/66/35 84/228/35 81/227/35 
f 28/31/36 82/229/36 51/230/36 
f 51/230/3 29/32/3 28/31/3 
f 79/92/53 88/110/53 57/231/53 
f 57/231/36 53/232/36 79/92/36 
f 46/233/36 73/83/36 77/89/36 
f 77/89/36 50/234/36 46/233/36 
f 27/30/35 26/29/35 43/235/35 
f 43/235/35 76/236/35 27/30/35 
f 71/79/35 47/237/35 49/238/35 
f 49/238/35 85/107/35 71/79/35 
f 55/63/36 80/95/36 60/101/36 
f 60/101/36 3/68/36 55/63/36 
f 31/34/54 30/33/54 52/239/54 
f 52/239/2 83/240/2 31/34/2 
f 78/91/2 56/241/2 59/242/2 
f 59/242/35 87/109/35 78/91/35 
f 60/4/36 32/222/36 3/1/36 
f 32/222/36 60/4/36 62/221/36 
# 0 polygons - 216 triangles

